<?xml version="1.0" encoding="utf-8"?>
<svg width="13.877686px" height="14.000061px" viewBox="0 0 13.877686 14.000061" version="1.1" xmlns:xlink="http://www.w3.org/1999/xlink" xmlns="http://www.w3.org/2000/svg">
  <g id="Winer">
    <path d="M6.93883 2.57655e-05C6.81376 -0.00115283 6.69166 0.0381315 6.59074 0.11202C6.48982 0.185908 6.41549 0.29044 6.37883 0.410026L5.01883 4.86003L0.528832 4.86003C0.418433 4.87153 0.31352 4.91395 0.226144 4.9824C0.138768 5.05085 0.0724733 5.14257 0.0348765 5.247C-0.00272027 5.35144 -0.0100945 5.46436 0.0136009 5.5728C0.0372963 5.68124 0.0911002 5.78079 0.168832 5.86003L3.82883 8.73003L2.44883 13.25C2.4221 13.3372 2.4163 13.4294 2.4319 13.5193C2.4475 13.6091 2.48406 13.694 2.53861 13.7671C2.59316 13.8401 2.66417 13.8993 2.74587 13.9398C2.82757 13.9802 2.91766 14.0009 3.00883 14C3.13499 13.9966 3.2571 13.9547 3.35883 13.88L6.93883 11.12L10.5188 13.87C10.6163 13.9536 10.7404 13.9997 10.8688 14C10.9604 13.9993 11.0506 13.9772 11.1322 13.9355C11.2137 13.8939 11.2845 13.8338 11.3388 13.76C11.3932 13.6863 11.4296 13.6009 11.4452 13.5107C11.4608 13.4204 11.4552 13.3277 11.4288 13.24L10.0488 8.73003L13.7088 5.91003C13.7866 5.83079 13.8404 5.73124 13.8641 5.6228C13.8878 5.51436 13.8804 5.40144 13.8428 5.297C13.8052 5.19257 13.7389 5.10085 13.6515 5.0324C13.5641 4.96395 13.4592 4.92153 13.3488 4.91003L8.85883 4.91003L7.49883 0.410026C7.46218 0.29044 7.38785 0.185908 7.28693 0.11202C7.18601 0.0381315 7.0639 -0.00115283 6.93883 2.57655e-05L6.93883 2.57655e-05ZM6.93883 3.71003L7.42883 5.30003L7.74883 6.36003L10.6688 6.36003L9.12883 7.54003L8.30883 8.17003L8.60883 9.17003L9.14883 10.93L7.84883 9.93003L6.93883 9.23003L6.02883 9.93003L4.72883 10.93L5.26883 9.17003L5.56883 8.17003L4.74883 7.54003L3.20883 6.36003L6.12883 6.36003L6.44883 5.30003L6.93883 3.71003L6.93883 3.71003Z" id="Vector" fill="#434652" fill-rule="evenodd" stroke="none" />
  </g>
</svg>